<!-- icons.svg -->
<svg xmlns="http://www.w3.org/2000/svg">
    <g id="goutte-touch">
        <!-- zone tactile transparente 48×48 -->
        <rect width="80" height="80" x="-24" y="-24" fill="transparent" stroke="none" class="touch"/>
        <!-- icône visuelle centrée -->
        <use href="#goutte" x="0" y="-20" width="120" height="180"/>
    </g>
    <symbol id="goutte" viewBox="0 0 48 64">
        <path clip-rule="evenodd" d="m3.38,10.22l4.62,5.78l4.62,-5.78c0.89,-1.11 1.38,-2.5 1.38,-3.93l0,-0.29c0,-3.31 -2.69,-6 -6,-6c-3.31,0 -6,2.69 -6,6l0,0.29c0,1.43 0.49,2.82 1.38,3.93zm4.62,-2.22c1.1,0 2,-0.9 2,-2c0,-1.1 -0.9,-2 -2,-2c-1.1,0 -2,0.9 -2,2c0,1.1 0.9,2 2,2z" fill="#ff0000" fill-rule="evenodd" id="svg_1"/>
    </symbol>
  </svg>